PathFileType	4	(X/Y/Z)	 s07c0202.trc
DataRate	CameraRate	NumFrames	NumMarkers	Units	OrigDataRate	OrigDataStartFrame	OrigNumFrames
200	200	4	48	mm	200	501	2000
Frame#	Time	racr			lacr			c7			jug			rlel			rdr			llel			ldr			s2			lic			ric			lasi			rasi			rpsi			lpsi			rgt			lgt			rth1			rth2			rth3			rth4			rlfc			rmfc			rsh1			rsh2			rsh3			rsh4			rlmal			rcal			rtoe			rmt5			lth1			lth2			lth4			lth3			llfc			lmfc			lsh1			lsh2			lsh3			lsh4			llmal			lcal			ltoe			lmt5			SBIKE			LBIKE			RBIKE			
		X1	Y1	Z1	X2	Y2	Z2	X3	Y3	Z3	X4	Y4	Z4	X5	Y5	Z5	X6	Y6	Z6	X7	Y7	Z7	X8	Y8	Z8	X9	Y9	Z9	X10	Y10	Z10	X11	Y11	Z11	X12	Y12	Z12	X13	Y13	Z13	X14	Y14	Z14	X15	Y15	Z15	X16	Y16	Z16	X17	Y17	Z17	X18	Y18	Z18	X19	Y19	Z19	X20	Y20	Z20	X21	Y21	Z21	X22	Y22	Z22	X23	Y23	Z23	X24	Y24	Z24	X25	Y25	Z25	X26	Y26	Z26	X27	Y27	Z27	X28	Y28	Z28	X29	Y29	Z29	X30	Y30	Z30	X31	Y31	Z31	X32	Y32	Z32	X33	Y33	Z33	X34	Y34	Z34	X35	Y35	Z35	X36	Y36	Z36	X37	Y37	Z37	X38	Y38	Z38	X39	Y39	Z39	X40	Y40	Z40	X41	Y41	Z41	X42	Y42	Z42	X43	Y43	Z43	X44	Y44	Z44	X45	Y45	Z45	X46	Y46	Z46	X47	Y47	Z47	X48	Y48	Z48	
501	2.5050	401.301086	1488.697947	-69.029375	418.392347	1480.581406	-358.835795	362.624282	1552.359712	-227.494658	348.244349	1403.955429	-220.244401	475.486692	1152.618046	44.777853	692.804801	954.578173	-41.950437	495.123337	1162.867180	-499.868767	693.284080	941.913724	-429.805498	-136.002257	1191.945759	-262.298573	19.673242	1262.991415	-397.473196	10.318976	1268.210153	-104.396245	60.809870	1191.027563	-371.185152	39.132031	1220.516692	-126.081706	-121.157482	1236.552743	-212.453391	-103.985558	1243.619417	-321.085314	-10.622672	1147.182635	-60.682756	-17.881751	1097.321971	-419.807183	139.210129	1109.946628	-63.971478	226.020306	1101.596655	-75.507190	298.884778	1057.446623	-70.412287	235.265132	1131.092231	-96.661374	414.185918	975.587261	-103.085336	404.237052	957.625568	-209.493708	330.072341	863.624532	-76.634277	289.332109	786.898960	-90.807176	216.405797	738.030191	-84.380539	300.908836	777.911971	-129.962304	121.215461	638.553903	-78.593052	44.272227	644.887420	-109.893525	249.259955	439.371227	-124.219043	171.481631	469.086594	-54.300026	35.705977	988.531192	-430.809870	97.406149	925.788743	-437.784699	129.454766	943.546143	-431.836752	120.550586	839.801079	-431.699787	208.046167	688.608586	-400.536993	199.623953	669.247466	-307.435615	172.023963	545.533434	-422.528565	178.160883	462.064544	-402.901452	140.802187	379.639781	-408.060434	181.735037	464.935071	-360.452581	109.107194	247.421265	-400.918496	39.576586	210.852069	-367.276410	328.051847	182.941054	-355.331466	248.769873	158.771618	-421.960013	-258.664619	970.935177	-234.676350	-75.569310	83.423458	-438.140650	-82.369660	79.998889	-40.509587	
502	2.5100	397.829706	1489.865430	-65.794584	419.864597	1481.433640	-355.158284	362.240803	1553.449219	-224.887130	346.383038	1404.845494	-217.116821	474.363500	1153.041610	43.083149	693.193626	955.191521	-42.112238	496.909160	1164.341285	-499.542429	693.256275	941.870861	-428.910788	-135.755773	1192.063216	-263.856928	21.345412	1262.735948	-400.195382	9.325977	1269.022478	-105.896874	61.610734	1190.706289	-372.053085	38.760256	1221.445891	-127.607003	-120.673346	1236.712146	-214.895482	-103.694399	1243.368840	-322.959799	-10.700842	1149.258646	-61.679422	-17.222470	1096.919742	-420.671902	139.302828	1113.335298	-64.963881	226.173156	1105.708757	-76.733808	299.442413	1062.369613	-71.549033	235.011312	1135.273481	-98.242122	415.661364	981.170419	-104.221529	405.727732	962.992913	-210.648316	333.086385	868.379418	-77.553287	293.110140	791.194804	-91.554484	220.851961	741.469728	-84.822690	304.619262	782.236742	-130.733950	126.622915	640.521752	-78.617588	49.275804	645.431323	-109.610779	258.067422	444.125144	-124.407467	180.413714	472.370040	-54.390107	35.808595	988.099107	-431.297879	97.370408	925.109689	-438.277538	129.375787	942.670692	-432.528942	120.049881	839.057819	-432.593612	207.549531	687.363053	-400.857941	198.979831	667.981038	-307.374581	169.694675	544.732375	-422.539368	174.702255	461.239278	-402.989838	136.171911	379.361427	-408.049138	178.411539	464.037388	-360.553670	102.648866	247.692611	-400.930524	32.460748	212.556004	-367.198045	320.250110	178.731795	-355.322492	240.422534	156.106452	-421.804119	-258.715410	970.947339	-234.724199	-75.569077	83.443354	-438.148789	-82.386137	80.024777	-40.499171	
503	2.5150	394.406362	1490.743752	-62.656079	421.477765	1481.888432	-351.510621	361.988470	1554.198732	-222.349529	345.886425	1405.809065	-215.605540	472.828344	1153.067625	40.980632	693.488028	955.673066	-42.316450	499.025239	1166.033011	-499.633732	693.453018	942.084502	-428.118937	-135.592884	1192.179724	-265.620507	22.378494	1262.162075	-401.330514	8.282174	1269.869851	-107.306645	62.354049	1190.414858	-372.884444	38.177857	1222.390936	-128.960485	-120.988643	1237.175855	-216.754708	-103.319943	1243.327561	-325.290987	-11.133998	1151.227950	-62.674875	-16.646410	1096.414464	-421.525062	139.065855	1116.484514	-65.912632	225.936886	1109.594707	-77.908333	299.606308	1066.980789	-72.641839	234.379387	1139.118455	-99.388459	416.600991	986.335796	-105.139774	406.880104	967.929727	-211.796561	335.766812	872.639932	-78.431447	296.806641	794.871713	-92.107053	225.014761	744.309349	-85.255181	308.149368	786.029898	-131.532765	131.934106	642.086163	-78.655692	54.244818	645.298847	-109.292164	267.403935	448.535166	-124.549233	189.276391	475.242051	-54.512654	36.065655	987.887649	-431.660157	97.499625	924.813332	-438.593073	129.516169	942.324473	-432.984110	120.066216	838.673195	-433.351821	207.808474	686.409066	-401.008925	199.045301	667.325373	-307.248964	167.982618	544.331396	-422.405772	171.695211	460.774816	-402.956709	131.902489	379.559039	-407.984813	175.441932	463.529300	-360.444502	96.238732	248.544183	-401.070665	25.399616	214.613272	-367.095040	312.365685	175.038185	-355.388192	232.026345	154.105842	-421.865435	-258.744938	970.959380	-234.769582	-75.563630	83.443474	-438.164115	-82.428690	80.126412	-40.482330	
504	2.5200	391.170589	1491.057284	-59.868956	422.936905	1481.932509	-347.575366	361.786561	1554.571172	-219.792427	345.301108	1406.337284	-213.730150	471.808293	1153.352870	39.443537	693.722357	956.038085	-42.557545	501.040016	1167.144262	-499.402118	693.951125	941.747005	-427.318536	-135.678031	1192.441044	-267.131440	23.271090	1261.507480	-402.367869	7.184885	1270.604204	-108.742606	62.953311	1190.093937	-373.644674	37.417583	1223.130745	-130.231373	-121.366139	1237.703717	-218.668044	-103.058774	1243.253057	-327.659989	-11.911504	1153.081599	-63.652102	-16.182269	1096.002810	-422.315091	138.540557	1119.435905	-66.756060	225.464035	1113.129907	-78.979666	299.449441	1071.059271	-73.699373	233.559190	1142.544866	-100.798470	417.188084	991.025357	-105.908107	407.434829	972.405330	-212.258667	338.075671	876.391939	-79.230527	300.121908	798.024524	-92.682716	228.962917	746.539916	-85.713862	311.371193	789.239091	-132.286490	137.196805	642.925796	-78.564278	59.170537	644.473482	-108.927169	276.785766	452.506362	-124.616226	198.124105	477.475679	-54.498716	36.501920	987.606117	-431.957908	98.015019	924.746248	-438.649908	129.951235	942.140619	-433.068855	120.643818	838.580512	-433.893643	208.772896	685.835877	-401.008311	199.778770	666.916878	-306.986389	166.821977	544.362182	-422.229316	168.969188	460.700573	-402.836396	127.808031	380.207245	-407.904661	172.817922	463.436232	-360.353348	89.836415	249.869235	-401.168560	18.389116	217.245884	-367.033908	304.435540	171.722267	-355.363060	223.670006	152.569328	-421.838207	-258.785346	970.945820	-234.793410	-75.582078	83.466653	-438.160453	-82.401889	80.079775	-40.503883	
